<svg width="18" height="19" viewBox="0 0 18 19" fill="none" xmlns="http://www.w3.org/2000/svg">
<g clip-path="url(#clip0_156_172)">
<path d="M8.34157 9.80677C8.13261 9.59768 7.88451 9.43182 7.61144 9.31866C7.33836 9.20549 7.04566 9.14725 6.75006 9.14725C6.45447 9.14725 6.16177 9.20549 5.88869 9.31866C5.61562 9.43182 5.36752 9.59768 5.15856 9.80677L0.0285645 14.9368C0.0979099 15.8773 0.519745 16.7571 1.20972 17.4C1.89969 18.043 2.80695 18.4018 3.75006 18.4048H14.2501C14.9849 18.4046 15.7032 18.1873 16.3148 17.78L8.34157 9.80677Z" fill="#A6A6A6"/>
<path d="M13.5 6.40475C14.3284 6.40475 15 5.73318 15 4.90475C15 4.07633 14.3284 3.40475 13.5 3.40475C12.6716 3.40475 12 4.07633 12 4.90475C12 5.73318 12.6716 6.40475 13.5 6.40475Z" fill="#A6A6A6"/>
<path d="M14.25 0.404755H3.75C2.7558 0.405946 1.80267 0.801416 1.09966 1.50442C0.396661 2.20742 0.00119089 3.16056 0 4.15475L0 12.8443L4.098 8.74625C4.44623 8.39793 4.85967 8.12162 5.31471 7.9331C5.76974 7.74458 6.25746 7.64756 6.75 7.64756C7.24254 7.64756 7.73026 7.74458 8.18529 7.9331C8.64033 8.12162 9.05377 8.39793 9.402 8.74625L17.3752 16.7195C17.7825 16.1079 17.9999 15.3895 18 14.6548V4.15475C17.9988 3.16056 17.6033 2.20742 16.9003 1.50442C16.1973 0.801416 15.2442 0.405946 14.25 0.404755ZM13.5 7.90475C12.9067 7.90475 12.3266 7.72881 11.8333 7.39916C11.3399 7.06952 10.9554 6.60098 10.7284 6.0528C10.5013 5.50463 10.4419 4.90143 10.5576 4.31948C10.6734 3.73754 10.9591 3.20299 11.3787 2.78343C11.7982 2.36388 12.3328 2.07815 12.9147 1.9624C13.4967 1.84664 14.0999 1.90605 14.6481 2.13312C15.1962 2.36018 15.6648 2.7447 15.9944 3.23804C16.3241 3.73139 16.5 4.31141 16.5 4.90475C16.5 5.7004 16.1839 6.46347 15.6213 7.02608C15.0587 7.58868 14.2956 7.90475 13.5 7.90475Z" fill="#A6A6A6"/>
</g>
<defs>
<clipPath id="clip0_156_172">
<rect width="18" height="18" fill="white" transform="translate(0 0.404755)"/>
</clipPath>
</defs>
</svg>
