<svg width="18" height="19" viewBox="0 0 18 19" fill="none" xmlns="http://www.w3.org/2000/svg">
<g clip-path="url(#clip0_156_179)">
<path d="M16.207 4.30711H15.2374L15.7685 2.41458C16.0046 1.57336 15.514 0.700076 14.6728 0.464037C13.8316 0.227857 12.9583 0.718533 12.7223 1.55975L11.9513 4.30711H8.90961L9.44068 2.41458C9.67672 1.57336 9.18619 0.700076 8.34497 0.464037C7.50379 0.227857 6.6305 0.718533 6.39443 1.55975L5.62349 4.30711H3.55078C2.67704 4.30711 1.96875 5.0154 1.96875 5.88914C1.96875 6.76288 2.67704 7.47117 3.55078 7.47117H4.73562L3.65045 11.3384H1.79297C0.91923 11.3384 0.210938 12.0466 0.210938 12.9204C0.210938 13.7941 0.91923 14.5024 1.79297 14.5024H2.76258L2.23151 16.395C1.99543 17.2362 2.486 18.1095 3.32722 18.3455C3.47017 18.3857 3.61399 18.4048 3.7555 18.4048C4.44674 18.4048 5.08184 17.9481 5.27776 17.2498L6.04867 14.5024H9.09039L8.55932 16.395C8.32328 17.2362 8.81381 18.1095 9.65503 18.3455C9.79798 18.3857 9.9418 18.4048 10.0833 18.4048C10.7745 18.4048 11.4096 17.9481 11.6056 17.2498L12.3765 14.5024H14.4492C15.323 14.5024 16.0312 13.7941 16.0312 12.9204C16.0312 12.0466 15.323 11.3384 14.4492 11.3384H13.2644L14.3496 7.47117H16.207C17.0808 7.47117 17.7891 6.76288 17.7891 5.88914C17.7891 5.0154 17.0808 4.30711 16.207 4.30711ZM9.97829 11.3384H6.93657L8.02174 7.47117H11.0635L9.97829 11.3384Z" fill="white"/>
</g>
<defs>
<clipPath id="clip0_156_179">
<rect width="18" height="18" fill="white" transform="translate(0 0.404755)"/>
</clipPath>
</defs>
</svg>
